<svg xmlns="http://www.w3.org/2000/svg" viewBox="0 0 64 64" width="64" height="64">
  <!-- Vine leaf with blockchain nodes - TerroirOS Trace logo -->
  
  <!-- Leaf outline -->
  <path d="M32 4 C20 4 10 14 8 26 C6 38 10 50 20 56 C24 58 28 60 32 60 C36 60 40 58 44 56 C54 50 58 38 56 26 C54 14 44 4 32 4 Z" 
        fill="none" stroke="#2D5A27" stroke-width="2" stroke-linejoin="round"/>
  
  <!-- Stem -->
  <path d="M32 60 L32 62" stroke="#2D5A27" stroke-width="2.5" stroke-linecap="round"/>
  
  <!-- Left half - Organic veins -->
  <path d="M32 12 C28 18 24 24 20 30 M32 12 C30 20 26 28 22 36 M32 12 C31 22 28 32 24 42 M32 12 L32 50 M20 30 C18 34 16 38 14 42 M22 36 C20 40 18 44 16 48 M24 42 C22 46 20 50 18 52" 
        fill="none" stroke="#2D5A27" stroke-width="1.5" stroke-linecap="round" stroke-linejoin="round" opacity="0.9"/>
  
  <!-- Right half - Blockchain nodes and connections -->
  <!-- Connections -->
  <g stroke="#2D5A27" stroke-width="1.2" fill="none">
    <line x1="36" y1="16" x2="44" y2="22"/>
    <line x1="44" y1="22" x2="50" y2="28"/>
    <line x1="44" y1="22" x2="40" y2="30"/>
    <line x1="40" y1="30" x2="48" y2="36"/>
    <line x1="50" y1="28" x2="48" y2="36"/>
    <line x1="40" y1="30" x2="36" y2="38"/>
    <line x1="36" y1="38" x2="44" y2="44"/>
    <line x1="48" y1="36" x2="44" y2="44"/>
    <line x1="36" y1="38" x2="38" y2="48"/>
    <line x1="44" y1="44" x2="38" y2="48"/>
    <line x1="44" y1="44" x2="46" y2="50"/>
  </g>
  
  <!-- Nodes -->
  <g fill="#C4A235">
    <circle cx="36" cy="16" r="3"/>
    <circle cx="44" cy="22" r="3"/>
    <circle cx="50" cy="28" r="2.5"/>
    <circle cx="40" cy="30" r="3"/>
    <circle cx="48" cy="36" r="2.5"/>
    <circle cx="36" cy="38" r="3"/>
    <circle cx="44" cy="44" r="3"/>
    <circle cx="38" cy="48" r="2.5"/>
    <circle cx="46" cy="50" r="2"/>
  </g>
</svg>